# xmcd
#
# Track frame offsets: 
#        150
#        12990
#        26774
#        39633
#        52782
#        66381
#        80351
#        93705
#        107618
#        122092
#        134759
#        146363
#        159934
#        174498
#        188562
#        204445
#        220366
#        232477
#        244946
#        257038
#        269800
#        283387
#
# Disc length: 3918 seconds
#
# Revision: 3
# Processed by: cddbd v1.5.2PL0 Copyright (c) Steve Scherf et al.
# Submitted via: ExactAudioCopyFreeDBPlugin 1.0
#
DISCID=530f4c16
DTITLE=B.B. King - The Greatest Blues Legends CD04 - Singin' The Blues
DTITLE=and King Of The Blues
DYEAR=1957
DGENRE=Blues
TTITLE0=Please Love Me
TTITLE1=You Upset Me Baby
TTITLE2=Everyday I Have The Blues
TTITLE3=Bad Luck
TTITLE4=Three O'Clock Blues
TTITLE5=Blind Love
TTITLE6=Woke Up This Morning
TTITLE7=You Know I Love You
TTITLE8=Sweet Little Angel
TTITLE9=Ten Long Years
TTITLE10=Did You Ever Love A Woman
TTITLE11=Crying Won't Help You
TTITLE12=I've Got A Right To Love My Baby
TTITLE13=What Way To Go
TTITLE14=Long Nights
TTITLE15=Feel Like A Million
TTITLE16=I'll Survive
TTITLE17=Good Man Gone Bad
TTITLE18=If I Lost You
TTITLE19=You're On The Top
TTITLE20=Partin' Time
TTITLE21=I'm King
EXTD=
EXTT0=
EXTT1=
EXTT2=
EXTT3=
EXTT4=
EXTT5=
EXTT6=
EXTT7=
EXTT8=
EXTT9=
EXTT10=
EXTT11=
EXTT12=
EXTT13=
EXTT14=
EXTT15=
EXTT16=
EXTT17=
EXTT18=
EXTT19=
EXTT20=
EXTT21=
PLAYORDER=
